REM DIRINDEX 1\2,1\3,1\4
REM DIRNAME cjc151,folder01,folder02,folder03
TITLE ""
FILE "005 005_TOEFL_3900.mp3" MP3
  TRACK 01 AUDIO
    TITLE "2:cjc151_0179"
    INDEX 01 00:00:00
  TRACK 02 AUDIO
    TITLE "0:"
    INDEX 01 00:01:26
  TRACK 03 AUDIO
    TITLE "3:cjc151_0180"
    INDEX 01 00:03:06
  TRACK 04 AUDIO
    TITLE "0:"
    INDEX 01 00:07:27
  TRACK 05 AUDIO
    TITLE "2:cjc151_0181"
    INDEX 01 00:09:12
  TRACK 06 AUDIO
    TITLE "0:"
    INDEX 01 00:10:18
  TRACK 07 AUDIO
    TITLE "3:cjc151_0182"
    INDEX 01 00:11:70
  TRACK 08 AUDIO
    TITLE "0:"
    INDEX 01 00:16:02
  TRACK 09 AUDIO
    TITLE "2:cjc151_0183"
    INDEX 01 00:17:57
  TRACK 10 AUDIO
    TITLE "0:"
    INDEX 01 00:19:11
  TRACK 11 AUDIO
    TITLE "3:cjc151_0184"
    INDEX 01 00:20:65
  TRACK 12 AUDIO
    TITLE "0:"
    INDEX 01 00:25:15
  TRACK 13 AUDIO
    TITLE "2:cjc151_0185"
    INDEX 01 00:26:69
  TRACK 14 AUDIO
    TITLE "0:"
    INDEX 01 00:27:59
  TRACK 15 AUDIO
    TITLE "3:cjc151_0186"
    INDEX 01 00:29:40
  TRACK 16 AUDIO
    TITLE "0:"
    INDEX 01 00:34:00
  TRACK 17 AUDIO
    TITLE "2:cjc151_0187"
    INDEX 01 00:35:57
  TRACK 18 AUDIO
    TITLE "0:"
    INDEX 01 00:36:48
  TRACK 19 AUDIO
    TITLE "3:cjc151_0188"
    INDEX 01 00:38:30
  TRACK 20 AUDIO
    TITLE "0:"
    INDEX 01 00:43:27
  TRACK 21 AUDIO
    TITLE "2:cjc151_0189"
    INDEX 01 00:45:08
  TRACK 22 AUDIO
    TITLE "0:"
    INDEX 01 00:46:21
  TRACK 23 AUDIO
    TITLE "3:cjc151_0190"
    INDEX 01 00:48:02
  TRACK 24 AUDIO
    TITLE "0:"
    INDEX 01 00:52:00
  TRACK 25 AUDIO
    TITLE "2:cjc151_0191"
    INDEX 01 00:53:57
  TRACK 26 AUDIO
    TITLE "0:"
    INDEX 01 00:54:56
  TRACK 27 AUDIO
    TITLE "3:cjc151_0192"
    INDEX 01 00:56:27
  TRACK 28 AUDIO
    TITLE "0:"
    INDEX 01 01:00:23
  TRACK 29 AUDIO
    TITLE "2:cjc151_0193"
    INDEX 01 01:02:03
  TRACK 30 AUDIO
    TITLE "0:"
    INDEX 01 01:02:73
  TRACK 31 AUDIO
    TITLE "3:cjc151_0194"
    INDEX 01 01:04:52
  TRACK 32 AUDIO
    TITLE "0:"
    INDEX 01 01:08:64
  TRACK 33 AUDIO
    TITLE "2:cjc151_0195"
    INDEX 01 01:10:49
  TRACK 34 AUDIO
    TITLE "0:"
    INDEX 01 01:11:52
  TRACK 35 AUDIO
    TITLE "3:cjc151_0196"
    INDEX 01 01:13:32
  TRACK 36 AUDIO
    TITLE "0:"
    INDEX 01 01:17:10
  TRACK 37 AUDIO
    TITLE "2:cjc151_0197"
    INDEX 01 01:18:68
  TRACK 38 AUDIO
    TITLE "0:"
    INDEX 01 01:19:60
  TRACK 39 AUDIO
    TITLE "3:cjc151_0198"
    INDEX 01 01:21:41
  TRACK 40 AUDIO
    TITLE "0:"
    INDEX 01 01:24:59
  TRACK 41 AUDIO
    TITLE "2:cjc151_0199"
    INDEX 01 01:26:36
  TRACK 42 AUDIO
    TITLE "0:"
    INDEX 01 01:27:46
  TRACK 43 AUDIO
    TITLE "3:cjc151_0200"
    INDEX 01 01:29:27
  TRACK 44 AUDIO
    TITLE "0:"
    INDEX 01 01:33:17
  TRACK 45 AUDIO
    TITLE "2:cjc151_0201"
    INDEX 01 01:34:71
  TRACK 46 AUDIO
    TITLE "0:"
    INDEX 01 01:36:05
  TRACK 47 AUDIO
    TITLE "3:cjc151_0202"
    INDEX 01 01:37:60
  TRACK 48 AUDIO
    TITLE "0:"
    INDEX 01 01:41:44
  TRACK 49 AUDIO
    TITLE "2:cjc151_0203"
    INDEX 01 01:43:25
  TRACK 50 AUDIO
    TITLE "0:"
    INDEX 01 01:44:26
  TRACK 51 AUDIO
    TITLE "3:cjc151_0204"
    INDEX 01 01:46:08
  TRACK 52 AUDIO
    TITLE "0:"
    INDEX 01 01:50:29
  TRACK 53 AUDIO
    TITLE "2:cjc151_0205"
    INDEX 01 01:52:06
  TRACK 54 AUDIO
    TITLE "0:"
    INDEX 01 01:53:23
  TRACK 55 AUDIO
    TITLE "3:cjc151_0206"
    INDEX 01 01:55:05
  TRACK 56 AUDIO
    TITLE "0:"
    INDEX 01 02:00:12
  TRACK 57 AUDIO
    TITLE "2:cjc151_0207"
    INDEX 01 02:01:68
  TRACK 58 AUDIO
    TITLE "0:"
    INDEX 01 02:02:67
  TRACK 59 AUDIO
    TITLE "3:cjc151_0208"
    INDEX 01 02:04:47
  TRACK 60 AUDIO
    TITLE "0:"
    INDEX 01 02:07:63
  TRACK 61 AUDIO
    TITLE "2:cjc151_0209"
    INDEX 01 02:09:42
  TRACK 62 AUDIO
    TITLE "0:"
    INDEX 01 02:10:69
  TRACK 63 AUDIO
    TITLE "3:cjc151_0210"
    INDEX 01 02:12:46
  TRACK 64 AUDIO
    TITLE "0:"
    INDEX 01 02:16:68
  TRACK 65 AUDIO
    TITLE "2:cjc151_0211"
    INDEX 01 02:18:45
  TRACK 66 AUDIO
    TITLE "0:"
    INDEX 01 02:19:54
  TRACK 67 AUDIO
    TITLE "3:cjc151_0212"
    INDEX 01 02:21:32
  TRACK 68 AUDIO
    TITLE "0:"
    INDEX 01 02:25:59
  TRACK 69 AUDIO
    TITLE "2:cjc151_0213"
    INDEX 01 02:27:38
  TRACK 70 AUDIO
    TITLE "0:"
    INDEX 01 02:28:43
  TRACK 71 AUDIO
    TITLE "3:cjc151_0214"
    INDEX 01 02:30:23
  TRACK 72 AUDIO
    TITLE "0:"
    INDEX 01 02:33:58
  TRACK 73 AUDIO
    TITLE "2:cjc151_0215"
    INDEX 01 02:35:38
  TRACK 74 AUDIO
    TITLE "0:"
    INDEX 01 02:36:39
  TRACK 75 AUDIO
    TITLE "3:cjc151_0216"
    INDEX 01 02:38:16
  TRACK 76 AUDIO
    TITLE "0:"
    INDEX 01 02:41:22
  TRACK 77 AUDIO
    TITLE "2:cjc151_0217"
    INDEX 01 02:43:06
  TRACK 78 AUDIO
    TITLE "0:"
    INDEX 01 02:44:09
  TRACK 79 AUDIO
    TITLE "3:cjc151_0218"
    INDEX 01 02:45:65
  TRACK 80 AUDIO
    TITLE "0:"
    INDEX 01 02:49:38
  TRACK 81 AUDIO
    TITLE "2:cjc151_0219"
    INDEX 01 02:51:17
  TRACK 82 AUDIO
    TITLE "0:"
    INDEX 01 02:52:24
  TRACK 83 AUDIO
    TITLE "3:cjc151_0220"
    INDEX 01 02:54:06
  TRACK 84 AUDIO
    TITLE "0:"
    INDEX 01 02:57:23
  TRACK 85 AUDIO
    TITLE "2:cjc151_0221"
    INDEX 01 02:59:03
  TRACK 86 AUDIO
    TITLE "0:"
    INDEX 01 03:00:04
  TRACK 87 AUDIO
    TITLE "3:cjc151_0222"
    INDEX 01 03:01:60
  TRACK 88 AUDIO
    TITLE "0:"
    INDEX 01 03:05:52
